<svg id="Layer_1" data-name="Layer 1" xmlns="http://www.w3.org/2000/svg" width="46.68994" height="43" viewBox="0 0 46.68994 43">
  <title>icon-proyectos</title>
  <g>
    <path d="M290.144,463.29046h0A3.29052,3.29052,0,0,0,286.85352,460H273.14659a3.29052,3.29052,0,0,0-3.29046,3.29046h0a3.2904,3.2904,0,0,1-3.29046,3.29046h-3.07855A5.332,5.332,0,0,0,258.155,471.913v22.755A5.332,5.332,0,0,0,263.48711,500H296.513a5.332,5.332,0,0,0,5.332-5.332V471.913a5.332,5.332,0,0,0-5.332-5.33208h-3.07856A3.29046,3.29046,0,0,1,290.144,463.29046Z" transform="translate(-256.65503 -458.5)" style="fill: none;stroke: #fff;stroke-linecap: round;stroke-linejoin: round;stroke-width: 3px"/>
    <circle cx="23.34499" cy="23.57294" r="11.75757" style="fill: none;stroke: #fff;stroke-linecap: round;stroke-linejoin: round;stroke-width: 3px"/>
  </g>
</svg>
