<svg id="Layer_1" data-name="Layer 1" xmlns="http://www.w3.org/2000/svg" width="11.40686mm" height="11.40686mm" viewBox="0 0 32.33441 32.33441">
  <title>icon-youtube</title>
  <g>
    <path d="M6.07295,0H26.26147a6.07294,6.07294,0,0,1,6.07294,6.07294V26.26146a6.07295,6.07295,0,0,1-6.07295,6.07295H6.07295A6.07295,6.07295,0,0,1,0,26.26146V6.07295A6.07295,6.07295,0,0,1,6.07295,0Z" style="fill: #fff"/>
    <path d="M304.85862,413.3827H290.944a4.008,4.008,0,0,0-4.008,4.008v7.10859a4.008,4.008,0,0,0,4.008,4.008h13.91458a4.008,4.008,0,0,0,4.008-4.008v-7.10859A4.008,4.008,0,0,0,304.85862,413.3827Zm-9.03979,10.25956v-5.54578l5.46661,2.77289Z" transform="translate(-281.47279 -404.77779)" style="fill: #424143"/>
  </g>
</svg>
