<svg id="Layer_1" data-name="Layer 1" xmlns="http://www.w3.org/2000/svg" width="11.40686mm" height="11.40688mm" viewBox="0 0 32.33441 32.33447">
  <title>icon-vimeo</title>
  <g>
    <rect width="32.33441" height="32.33447" rx="6.07295" ry="6.07295" style="fill: #fff"/>
    <path d="M303.59955,413.424h0.52251c0.02677,0.00439.05338,0.01105,0.08031,0.01279a3.52681,3.52681,0,0,1,.55345.07711,2.19826,2.19826,0,0,1,1.63488,1.368,4.02862,4.02862,0,0,1,.28158,1.38149c0.00905,0.20614.00206,0.41293,0.00325,0.6194a4.22811,4.22811,0,0,1-.09776.87323,7.872,7.872,0,0,1-.47812,1.48846,15.67433,15.67433,0,0,1-1.23793,2.31243,34.11075,34.11075,0,0,1-3.12529,4.15167,15.68643,15.68643,0,0,1-1.75237,1.72749,8.07215,8.07215,0,0,1-1.41357.96769,4.03845,4.03845,0,0,1-1.40837.46458c-0.05885.00688-.11754,0.015-0.17634,0.02254H296.732c-0.07321-.01225-0.14686-0.02233-0.21953-0.03717a1.86423,1.86423,0,0,1-.79688-0.38855,3.37007,3.37007,0,0,1-.66183-0.73494,6.93208,6.93208,0,0,1-.66644-1.24807,4.38551,4.38551,0,0,1-.20468-0.52793q-0.67216-2.44029-1.33353-4.88357c-0.14556-.53492-0.2955-1.06843-0.49232-1.58741a5.7671,5.7671,0,0,0-.48159-1.01608,1.96022,1.96022,0,0,0-.37728-0.45975,0.85637,0.85637,0,0,0-.28743-0.16918,0.415,0.415,0,0,0-.34644.01853c-0.08069.04411-.1655,0.08172-0.24245,0.13147-0.31116.2011-.62,0.40578-0.92964,0.60921l-0.07717.051c-0.28185-.36237-0.56071-0.72106-0.8412-1.08176l0.07018-.06329c0.72811-.64883,1.45827-1.29527,2.18346-1.94729a16.66357,16.66357,0,0,1,1.352-1.11568,6.51656,6.51656,0,0,1,.99765-0.61062,2.06508,2.06508,0,0,1,1.11552-.20089,1.82954,1.82954,0,0,1,1.23793.63029,2.94913,2.94913,0,0,1,.50977.85443,6.464,6.464,0,0,1,.37213,1.44055q0.10014,0.62972.20349,1.25885c0.07012,0.42421.13819,0.8489,0.21584,1.2718q0.13388,0.72954.28407,1.45611a12.956,12.956,0,0,0,.34189,1.31261,5.1681,5.1681,0,0,0,.37012.91046,1.55514,1.55514,0,0,0,.26906.3743,0.4563,0.4563,0,0,0,.62731.0789,2.00075,2.00075,0,0,0,.29025-0.2205,3.66,3.66,0,0,0,.47254-0.52728,14.38828,14.38828,0,0,0,1.36019-2.1724,5.47582,5.47582,0,0,0,.39429-0.96514,2.5409,2.5409,0,0,0,.08286-1.136,0.95775,0.95775,0,0,0-.80213-0.83286,2.37485,2.37485,0,0,0-.824-0.00585,3.58658,3.58658,0,0,0-.83259.22646,0.35667,0.35667,0,0,1-.051.01133c0.00824-.02986.01344-0.05143,0.02021-0.07256a9.7505,9.7505,0,0,1,.34037-0.91517,6.33555,6.33555,0,0,1,1.0215-1.6661,4.28574,4.28574,0,0,1,2.94538-1.48916C303.42782,413.44412,303.51361,413.43339,303.59955,413.424Z" transform="translate(-281.47279 -404.77777)" style="fill: #424143"/>
  </g>
</svg>
