<svg id="Layer_1" data-name="Layer 1" xmlns="http://www.w3.org/2000/svg" width="11.40688mm" height="11.40686mm" viewBox="0 0 32.33447 32.33441">
  <title>icon-instagram</title>
  <g>
    <rect width="32.33447" height="32.33441" rx="6.07295" ry="6.07295" style="fill: #fff"/>
    <g>
      <path d="M288.51567,417.37228a6.21291,6.21291,0,0,1,.889-3.4021,4.83666,4.83666,0,0,1,2.58122-1.96507,10.09275,10.09275,0,0,1,3.26494-.36151q3.16943-.00585,6.33919.0201a5.96289,5.96289,0,0,1,3.32764.93073,4.6198,4.6198,0,0,1,2.05221,3.156,14.44259,14.44259,0,0,1,.20533,2.38835c0.0103,2.27368-.01463,4.54737-0.05067,6.82084a5.51572,5.51572,0,0,1-.76582,2.827,4.7451,4.7451,0,0,1-2.697,2.10374,10.41691,10.41691,0,0,1-3.23107.35495q-3.11042.00691-6.22148-.01485a6.28918,6.28918,0,0,1-3.10568-.73152,4.70841,4.70841,0,0,1-2.25337-2.80557,9.95682,9.95682,0,0,1-.34818-2.54762C288.49471,423.99369,288.48116,419.11495,288.51567,417.37228Zm1.81165,8.11724a3.18156,3.18156,0,0,0,1.225,2.2713,4.06451,4.06451,0,0,0,2.47381.76122,72.34283,72.34283,0,0,0,8.37476-.088,3.32325,3.32325,0,0,0,1.706-.65338,3.48263,3.48263,0,0,0,1.32632-2.88637c0.05175-2.09214.04173-4.18629,0.03409-6.27914a21.85211,21.85211,0,0,0-.11884-2.24594,3.179,3.179,0,0,0-1.04453-2.09084,3.60642,3.60642,0,0,0-2.424-.877c-2.27238-.04541-4.54558-0.07776-6.81818-0.06292a8.25157,8.25157,0,0,0-2.49543.27437,3.06838,3.06838,0,0,0-2.2409,2.79858C290.19824,418.04593,290.21575,424.43665,290.32733,425.48952Z" transform="translate(-281.47277 -404.77779)" style="fill: #424143"/>
      <path d="M297.859,416.16236a4.79167,4.79167,0,1,1-4.8342,4.74267A4.79387,4.79387,0,0,1,297.859,416.16236Zm3.08362,4.82455a3.0987,3.0987,0,1,0-3.07029,3.05615A3.11323,3.11323,0,0,0,300.9426,420.98691Z" transform="translate(-281.47277 -404.77779)" style="fill: #424143"/>
      <path d="M302.82508,417.08241a1.102,1.102,0,0,1-1.13633-1.097,1.14244,1.14244,0,0,1,2.28485.01051A1.09831,1.09831,0,0,1,302.82508,417.08241Z" transform="translate(-281.47277 -404.77779)" style="fill: #424143"/>
    </g>
  </g>
</svg>
