<svg id="Layer_1" data-name="Layer 1" xmlns="http://www.w3.org/2000/svg" width="44.57442" height="43" viewBox="0 0 44.57442 43">
  <title>icon-inicio</title>
  <path d="M277.53982,461.072l-17.30458,18.61457a3.82165,3.82165,0,0,0-1.02245,2.60168v15.212A2.49983,2.49983,0,0,0,261.71263,500h10.17315a2.49983,2.49983,0,0,0,2.49983-2.49984V484.137a5.91633,5.91633,0,0,1,4.79861-5.98817,5.61687,5.61687,0,0,1,6.43,5.55663v13.79474A2.49983,2.49983,0,0,0,288.114,500h10.17334a2.49983,2.49983,0,0,0,2.49983-2.49984v-15.212a3.8213,3.8213,0,0,0-1.02255-2.60168L282.46,461.072A3.35885,3.35885,0,0,0,277.53982,461.072Z" transform="translate(-257.71279 -458.5)" style="fill: none;stroke: #fff;stroke-linecap: round;stroke-linejoin: round;stroke-width: 3px"/>
</svg>
