<svg id="Layer_1" data-name="Layer 1" xmlns="http://www.w3.org/2000/svg" width="25" height="40" viewBox="0 0 25 40">
  <title>icon-quehacemos</title>
  <g>
    <path d="M278.67784,492.14884a2.49394,2.49394,0,0,1-2.58622-2.39046c0-3.03849,2.6721-5.68667,5.50078-8.48986,2.68826-2.66405,5.73515-5.68294,5.73515-8.49359,0-5.51392-3.744-7.994-6.40242-7.994-1.378,0-8.25268.32028-8.25268,6.65033a2.59424,2.59424,0,0,1-5.17245,0c0-7.854,6.95906-11.43124,13.42513-11.43124,5.68969,0,11.57487,4.77811,11.57487,12.77494,0,4.69407-3.78538,8.445-7.12525,11.75432-1.83107,1.81525-4.11068,4.074-4.11068,5.22912A2.49394,2.49394,0,0,1,278.67784,492.14884Z" transform="translate(-267.5 -460)" style="fill: #fff"/>
    <ellipse cx="11.46543" cy="37.3705" rx="2.84485" ry="2.6295" style="fill: #fff"/>
  </g>
</svg>
